HIERARCHY
ROOT Hips
{
	OFFSET -0.179506 -22.333345 2.821913
	CHANNELS 6 Xposition Yposition Zposition Zrotation Yrotation Xrotation 
	JOINT LeftUpLeg
	{
		OFFSET 6.951974 -9.140623 -0.681533
		CHANNELS 3 Zrotation Yrotation Xrotation
		JOINT LeftLeg
		{
			OFFSET 3.427654 -37.519855 -0.449580
			CHANNELS 3 Zrotation Yrotation Xrotation
			JOINT LeftFoot
			{
				OFFSET -1.359570 -39.796059 -4.369333
				CHANNELS 3 Zrotation Yrotation Xrotation
				JOINT LeftToe
				{
					OFFSET 2.635814 -5.579078 11.928840
					CHANNELS 3 Zrotation Yrotation Xrotation
					End Site
					{
						OFFSET 0.000000 0.000000 0.000000
					}
				}
			}
		}
	}
	JOINT RightUpLeg
	{
		OFFSET -6.767048 -9.052170 -0.431982
		CHANNELS 3 Zrotation Yrotation Xrotation
		JOINT RightLeg
		{
			OFFSET -3.829005 -38.256897 -0.885003
			CHANNELS 3 Zrotation Yrotation Xrotation
			JOINT RightFoot
			{
				OFFSET 1.577377 -39.841461 -4.231180
				CHANNELS 3 Zrotation Yrotation Xrotation
				JOINT RightToe
				{
					OFFSET -2.537174 -4.814398 12.334795
					CHANNELS 3 Zrotation Yrotation Xrotation
					End Site
					{
						OFFSET 0.000000 0.000000 0.000000
					}
				}
			}
		}
	}
	JOINT Spine
	{
		OFFSET -0.253288 10.896323 -2.669631
		CHANNELS 3 Zrotation Yrotation Xrotation
		JOINT Spine1
		{
			OFFSET 0.548704 13.518043 0.109247
			CHANNELS 3 Zrotation Yrotation Xrotation
			JOINT Spine2
			{
				OFFSET 0.145701 5.292222 2.542457
				CHANNELS 3 Zrotation Yrotation Xrotation
				JOINT Neck
				{
					OFFSET -0.277840 21.387037 -4.285703
					CHANNELS 3 Zrotation Yrotation Xrotation
					JOINT Head
					{
						OFFSET 0.515184 6.496960 5.134897
						CHANNELS 3 Zrotation Yrotation Xrotation
						End Site
						{
							OFFSET 0.000000 0.000000 0.000000
						}
					}
				}
				JOINT LeftShoulder
				{
					OFFSET 7.884473 12.174932 -3.408961
					CHANNELS 3 Zrotation Yrotation Xrotation
					JOINT LeftArm
					{
						OFFSET 9.097692 3.046888 -0.886815
						CHANNELS 3 Zrotation Yrotation Xrotation
						JOINT LeftForeArm
						{
							OFFSET 25.961220 -1.277207 -2.745643
							CHANNELS 3 Zrotation Yrotation Xrotation
							JOINT LeftHand
							{
								OFFSET 24.923361 0.898606 -0.117091
								CHANNELS 3 Zrotation Yrotation Xrotation
								End Site
								{
									OFFSET 0.000000 0.000000 0.000000
								}
							}
						}
					}
				}
				JOINT RightShoulder
				{
					OFFSET -8.175920 11.883285 -3.861528
					CHANNELS 3 Zrotation Yrotation Xrotation
					JOINT RightArm
					{
						OFFSET -9.601238 3.255117 -0.914307
						CHANNELS 3 Zrotation Yrotation Xrotation
						JOINT RightForeArm
						{
							OFFSET -25.374195 -1.332924 -2.140099
							CHANNELS 3 Zrotation Yrotation Xrotation
							JOINT RightHand
							{
								OFFSET -25.529810 0.777228 -0.555919
								CHANNELS 3 Zrotation Yrotation Xrotation
								End Site
								{
									OFFSET 0.000000 0.000000 0.000000
								}
							}
						}
					}
				}
			}
		}
	}
}
MOTION
Frames: 9
Frame Time: 0.033333
-40.967075 -288.019928 97.806862 178.336158 0.544505 90.343965 2.419477 1.059752 3.442907 2.462520 -4.857781 -4.516070 -2.302969 11.775548 -0.278932 nan nan nan -0.172390 -2.102734 1.011292 2.760014 0.074281 -1.110791 5.780733 -5.893499 2.230603 nan nan nan -1.731489 1.966594 -1.067253 4.211471 -2.741893 5.486703 0.525752 -0.558024 -1.822628 0.723663 -2.007970 -0.059269 3.777328 -3.683285 -4.132991 -18.702399 6.575423 -0.962294 -65.487325 -5.054446 21.010652 3.215945 -26.765623 -9.831817 0.188794 -16.909983 -23.319647 19.085361 -2.393186 -1.899239 62.062886 1.339150 15.394010 -3.788326 31.708710 -13.474736 -4.306269 11.115446 -29.607629 
-40.759548 -288.280823 97.831566 -179.553311 0.090804 91.761710 2.608790 3.365980 0.898211 1.922684 -5.704960 -3.895177 -3.985317 8.735627 -0.065376 nan nan nan -0.335519 -2.443927 -0.297074 2.474917 0.190844 -1.263772 6.489241 -7.206944 0.719957 nan nan nan -2.603408 1.125262 -1.939709 4.362012 -3.620856 5.085149 0.622456 -0.693759 -2.095985 -0.635524 -3.685515 1.228174 5.745483 -1.341744 -5.626493 -19.498931 5.879229 -0.152942 -64.051029 -4.155047 22.097656 4.444807 -29.679981 -9.262421 1.054106 -12.091468 -26.975977 20.173705 -4.281562 -1.753256 59.924583 1.827461 15.722684 -0.528903 33.701110 -9.426272 -4.778681 6.668008 -32.089299 
-40.653511 -287.793091 97.847801 178.148997 -0.058614 90.583926 2.366763 2.540476 2.736512 1.878163 -3.995135 -3.233427 -3.639041 9.465321 -0.835909 nan nan nan -0.621063 -2.168599 0.989185 2.276991 1.135539 -1.061214 6.885644 -6.626375 0.923165 nan nan nan -2.322881 2.015920 -1.726219 4.100590 -2.975779 5.926141 0.357462 -0.152160 -1.899574 -0.487727 -3.311165 1.563935 5.539426 -1.375152 -6.440366 -19.480698 6.045211 -0.462607 -64.175649 -3.823006 22.184693 4.911542 -29.813150 -9.739393 0.636472 -12.151975 -26.978906 20.121460 -4.066556 -1.203401 59.924620 2.225084 15.689518 -0.422102 33.815074 -9.816565 -3.456002 6.674441 -33.014033 
-40.596127 -287.909851 97.824738 177.648146 -0.096350 90.631307 2.199026 2.544948 2.742698 1.993720 -3.953633 -3.230567 -3.786934 9.808679 -1.114996 nan nan nan -0.746502 -2.000473 0.543676 2.312247 0.835410 -0.478305 6.981410 -6.145810 0.906292 nan nan nan -1.868647 2.024351 -1.018713 4.092541 -2.787845 5.750831 0.952279 -0.015907 -1.770569 0.152151 -0.342403 3.165556 4.646490 4.363910 -11.015814 -20.636886 6.252211 -1.462933 -64.029328 -3.382505 21.728300 5.221624 -29.971291 -10.048421 -0.635455 -12.250427 -26.977832 18.345448 -4.688649 -1.448550 60.793623 3.025624 16.005575 0.753996 33.703325 -8.479957 0.056886 7.843065 -36.951734 
-40.528530 -287.962799 97.854065 177.211561 -0.191247 90.939769 2.037617 2.506619 2.356678 2.099559 -3.330254 -3.039584 -4.000028 9.513123 -1.262470 nan nan nan -0.919673 -1.818841 -0.053493 2.396648 0.633618 -0.068603 7.220984 -5.845004 0.828172 nan nan nan -1.567240 2.036992 -1.068469 3.837362 -2.604035 5.614673 0.568663 0.064799 -2.103798 0.323981 -0.576210 2.655399 4.375814 2.285994 -9.732562 -20.595354 6.324597 -1.685315 -63.656868 -3.162718 21.518341 5.486377 -28.865230 -8.710385 -3.587660 -16.072084 -24.551972 18.823069 -4.286358 -1.319418 60.512081 2.938983 15.712333 -0.565712 33.088876 -8.062176 1.568198 9.499040 -33.370148 
-40.322182 -287.868439 97.866585 177.153160 -0.074663 90.704441 2.131078 2.293624 2.947767 2.588785 -2.816465 -3.508791 -4.248342 9.235011 -1.073181 nan nan nan -0.623217 -1.924540 0.228210 2.327200 1.090443 0.047208 7.567033 -6.403953 0.830702 nan nan nan -1.635453 2.151564 -0.969036 3.830207 -2.490477 5.233564 0.086660 0.219818 -1.922771 -0.394644 -3.171266 0.583506 4.694162 -2.226910 -5.434976 -18.880557 6.006527 -0.728208 -64.932762 -3.604009 22.243523 5.778159 -27.812884 -8.578703 -0.738114 -14.419122 -26.220380 19.587554 -4.152535 -1.070368 60.469220 2.677803 15.198480 -1.542204 33.067193 -8.991401 -2.967904 7.614377 -29.861340 
-40.253174 -287.809418 97.868294 177.300647 -0.275068 90.731494 2.084485 2.477073 2.797798 2.462732 -2.907779 -3.306391 -4.290013 9.006281 -1.114032 nan nan nan -0.843119 -2.028155 0.213163 2.380975 0.930153 0.207670 7.740278 -6.401050 0.765473 nan nan nan -1.746505 2.117593 -0.995507 3.790886 -2.504214 5.189157 0.070006 0.187410 -1.801213 -0.617222 -3.220319 0.807113 4.866043 -2.271399 -5.743392 -18.740845 5.923491 -0.624194 -65.113972 -3.628474 22.103570 6.066299 -27.701687 -8.968758 -0.030182 -14.596757 -26.985205 19.432758 -4.256686 -1.054247 60.641177 2.701786 14.806802 -1.534929 33.125669 -8.695401 -3.973585 7.623273 -28.698167 
-40.088390 -287.768311 97.842216 177.580379 -0.094924 90.823983 2.283050 2.217496 2.749325 2.757184 -2.961465 -3.436759 -4.573168 8.996507 -0.998567 nan nan nan -0.459477 -2.018972 0.241898 2.241858 0.798979 0.058915 8.078172 -6.524781 0.819939 nan nan nan -1.669816 2.086437 -1.095626 3.895889 -2.590832 5.102424 0.143658 0.146687 -1.644484 -0.728888 -3.293607 0.779550 4.706104 -2.271168 -5.703372 -18.482400 5.737633 -0.448763 -65.715377 -3.730904 21.469133 6.930167 -27.219766 -9.121987 -0.858109 -15.309485 -26.803346 19.308234 -4.521671 -1.069892 60.649149 2.739832 14.370902 -2.936365 33.375609 -5.873321 -3.862652 7.762662 -24.185371 
-40.039463 -287.660675 97.828918 177.594845 -0.264202 90.824960 2.193639 2.223246 2.650631 2.636576 -2.691393 -3.116608 -4.912669 8.752333 -1.066626 nan nan nan -0.694253 -2.059105 0.382636 2.190894 0.698890 -0.004382 8.548915 -6.292907 0.785828 nan nan nan -1.589416 2.078159 -1.260610 3.792654 -2.686507 5.447890 -0.015116 0.170936 -1.810471 -0.660574 -2.943433 0.714865 4.578167 -2.504663 -5.668986 -18.181618 5.935886 -0.524135 -66.099517 -3.872042 21.198286 7.205740 -26.541479 -9.314102 -3.253163 -16.257602 -26.702107 19.001152 -4.665145 -1.020902 61.169017 2.863526 14.239064 -3.116067 33.184541 -5.826954 -2.168666 8.005448 -23.954552 
